HIERARCHY
ROOT joint_Root
{
	OFFSET 0.0 0.0 0.0
	CHANNELS 6 Xposition Yposition Zposition Zrotation Xrotation Yrotation 
	JOINT Hips
	{
		OFFSET -17.1583 93.1646 452.98
		CHANNELS 6 Xposition Yposition Zposition Zrotation Xrotation Yrotation 
		JOINT Spine
		{
			OFFSET 15.7357 0.0 0.0
			CHANNELS 6 Xposition Yposition Zposition Zrotation Xrotation Yrotation 
			JOINT Chest
			{
				OFFSET 8.98455 -0.406207 0.0
				CHANNELS 6 Xposition Yposition Zposition Zrotation Xrotation Yrotation 
				JOINT Neck
				{
					OFFSET 16.3773 0.0 0.0
					CHANNELS 6 Xposition Yposition Zposition Zrotation Xrotation Yrotation 
					JOINT Head
					{
						OFFSET 6.45672 0.0 0.0
						CHANNELS 6 Xposition Yposition Zposition Zrotation Xrotation Yrotation 
						End Site
						{
							OFFSET 0.0 0.0 0.0
						}
					}
				}
				JOINT Shoulder_L
				{
					OFFSET 12.9942 -0.242716 4.98039
					CHANNELS 6 Xposition Yposition Zposition Zrotation Xrotation Yrotation 
					JOINT UpperArm_L
					{
						OFFSET 5.34809 0.0 0.0
						CHANNELS 6 Xposition Yposition Zposition Zrotation Xrotation Yrotation 
						JOINT LowerArm_L
						{
							OFFSET 24.3286 1.87007e-05 0.0
							CHANNELS 6 Xposition Yposition Zposition Zrotation Xrotation Yrotation 
							JOINT Hand_L
							{
								OFFSET 22.2916 0.0 0.0
								CHANNELS 6 Xposition Yposition Zposition Zrotation Xrotation Yrotation 
								End Site
								{
									OFFSET 0.0 0.0 0.0
								}
							}
						}
					}
				}
				JOINT Shoulder_R
				{
					OFFSET 12.9945 -0.242716 -4.98039
					CHANNELS 6 Xposition Yposition Zposition Zrotation Xrotation Yrotation 
					JOINT UpperArm_R
					{
						OFFSET -5.34813 0.0 0.0
						CHANNELS 6 Xposition Yposition Zposition Zrotation Xrotation Yrotation 
						JOINT LowerArm_R
						{
							OFFSET -24.3289 0.000322201 0.0
							CHANNELS 6 Xposition Yposition Zposition Zrotation Xrotation Yrotation 
							JOINT Hand_R
							{
								OFFSET -22.2915 -0.000108084 0.0
								CHANNELS 6 Xposition Yposition Zposition Zrotation Xrotation Yrotation 
								End Site
								{
									OFFSET 0.0 0.0 0.0
								}
							}
						}
					}
				}
			}
		}
		JOINT UpperLeg_L
		{
			OFFSET -2.19248 -6.46944 0.0
			CHANNELS 6 Xposition Yposition Zposition Zrotation Xrotation Yrotation 
			JOINT LowerLeg_L
			{
				OFFSET 39.0811 0.0 -1.23785e-05
				CHANNELS 6 Xposition Yposition Zposition Zrotation Xrotation Yrotation 
				JOINT Foot_L
				{
					OFFSET 40.9854 0.0 -1.26872e-05
					CHANNELS 6 Xposition Yposition Zposition Zrotation Xrotation Yrotation 
					JOINT Toes_L
					{
						OFFSET 11.7543 0.0 0.0
						CHANNELS 6 Xposition Yposition Zposition Zrotation Xrotation Yrotation 
						End Site
						{
							OFFSET 0.0 0.0 0.0
						}
					}
				}
			}
		}
		JOINT UpperLeg_R
		{
			OFFSET -2.19251 6.46944 0.0
			CHANNELS 6 Xposition Yposition Zposition Zrotation Xrotation Yrotation 
			JOINT LowerLeg_R
			{
				OFFSET -39.0811 -0.00228153 -0.0401928
				CHANNELS 6 Xposition Yposition Zposition Zrotation Xrotation Yrotation 
				JOINT Foot_R
				{
					OFFSET -40.9854 0.0 0.0
					CHANNELS 6 Xposition Yposition Zposition Zrotation Xrotation Yrotation 
					JOINT Toes_R
					{
						OFFSET -11.7543 0.0 0.0
						CHANNELS 6 Xposition Yposition Zposition Zrotation Xrotation Yrotation 
						End Site
						{
							OFFSET 0.0 0.0 0.0
						}
					}
				}
			}
		}
	}
}
MOTION
Frames:	5
Frame Time:	0.0333333
0.000000 0.000000 0.000000 0.000000 0.000000 -0.000000 -0.318125 92.994600 -1.798430 86.005300 -4.322530 -0.258748 15.735700 0.000005 -0.000001 85.320800 87.460800 -83.005400 8.984550 -0.406207 -0.000000 -2.687820 -0.625225 4.616380 16.377300 -0.000001 -0.000001 3.453310 4.068770 -0.251922 6.456720 -0.000001 -0.000000 3.857270 5.846280 -4.653560 12.994200 -0.242716 4.980390 -92.664400 8.115280 -71.754800 5.348090 -0.000007 -0.000001 -74.502100 13.119100 3.956130 24.328600 0.000019 0.000005 13.518400 23.580700 -31.005300 22.291600 -0.000001 0.000005 -2.583610 4.983610 7.666210 12.994500 -0.242716 -4.980390 88.673500 4.219810 -72.531900 -5.348130 -0.000001 -0.000004 -70.877600 19.229500 -1.064340 -24.328900 0.000322 -0.000009 3.336110 6.838170 -26.092800 -22.291500 -0.000108 -0.000004 1.684010 5.245010 1.564460 -2.192480 -6.469440 -0.000000 -176.042000 -1.012470 -4.949630 39.081100 -0.000007 -0.000012 0.223529 -0.586414 20.866200 40.985400 -0.000006 -0.000013 2.224120 5.816300 -71.376900 11.754300 -0.000000 0.000003 0.000028 0.167155 -9.797130 -2.192510 6.469440 -0.000001 -174.601000 5.837540 179.950000 -39.081100 -0.002282 -0.040193 0.028355 -0.116144 12.156900 -40.985400 0.000008 0.000006 -0.617678 3.585300 -67.590200 -11.754300 -0.000006 -0.000006 -0.009621 0.268449 -5.667770
0.000000 0.000000 0.000000 0.000000 0.000000 -0.000000 -0.320562 92.989900 -1.799790 85.996700 -4.225510 -0.241597 15.735700 0.000005 -0.000001 84.560000 87.420400 -82.231300 8.984550 -0.406207 -0.000000 -2.611630 -0.699712 4.641580 16.377300 -0.000001 -0.000001 3.375170 3.958680 -0.049212 6.456720 -0.000001 -0.000000 3.608420 5.797900 -4.385300 12.994200 -0.242716 4.980390 -92.681500 8.158430 -71.735200 5.348090 -0.000007 -0.000001 -74.031600 11.324000 3.991300 24.328600 0.000019 0.000005 13.263900 22.319500 -31.828100 22.291600 -0.000001 0.000005 -2.735350 4.977480 7.794670 12.994500 -0.242716 -4.980390 88.687500 4.152100 -72.441000 -5.348130 -0.000001 -0.000004 -70.480800 17.142400 -0.760176 -24.328900 0.000322 -0.000009 3.751390 6.952250 -28.449800 -22.291500 -0.000108 -0.000004 1.905080 5.232060 1.902250 -2.192480 -6.469440 -0.000000 -176.029000 -0.948531 -4.971980 39.081100 -0.000007 -0.000012 0.224635 -0.587908 20.911900 40.985400 -0.000006 -0.000013 2.229340 5.843550 -71.360700 11.754300 -0.000000 0.000003 0.000008 0.167497 -9.783210 -2.192510 6.469440 -0.000001 -174.571000 5.808940 179.947000 -39.081100 -0.002282 -0.040193 0.029015 -0.118945 12.183100 -40.985400 0.000008 0.000006 -0.606363 3.453980 -67.602800 -11.754300 -0.000006 -0.000006 -0.009759 0.269495 -5.625020
0.000000 0.000000 0.000000 0.000000 0.000000 -0.000000 -0.316829 92.998200 -1.797340 86.034500 -4.163700 -0.315469 15.735700 0.000005 -0.000001 83.931600 87.417200 -81.595500 8.984550 -0.406207 -0.000000 -2.609820 -0.757273 4.654940 16.377300 -0.000001 -0.000001 3.253440 3.803810 0.173792 6.456720 -0.000001 -0.000000 3.362350 5.741580 -4.124740 12.994200 -0.242716 4.980390 -92.705600 8.201240 -71.671200 5.348090 -0.000007 -0.000001 -73.508800 9.305280 4.199900 24.328600 0.000019 0.000005 13.657100 21.527600 -33.510900 22.291600 -0.000001 0.000005 -2.725820 4.951240 8.339270 12.994500 -0.242716 -4.980390 88.711900 4.049800 -72.339300 -5.348130 -0.000001 -0.000004 -70.065500 14.655500 -0.407588 -24.328900 0.000322 -0.000009 4.350140 7.206730 -31.237000 -22.291500 -0.000108 -0.000004 2.117230 5.230180 1.950270 -2.192480 -6.469440 -0.000000 -176.058000 -0.956230 -5.006050 39.081100 -0.000007 -0.000012 0.221003 -0.581369 20.814400 40.985400 -0.000006 -0.000013 2.248890 5.953200 -71.307000 11.754300 -0.000000 0.000003 0.000029 0.167141 -9.797690 -2.192510 6.469440 -0.000001 -174.610000 5.825740 179.900000 -39.081100 -0.002282 -0.040193 0.028524 -0.117231 12.126300 -40.985400 0.000008 0.000006 -0.631624 3.412890 -67.579700 -11.754300 -0.000006 -0.000006 -0.009502 0.267549 -5.704590
0.000000 0.000000 0.000000 0.000000 0.000000 -0.000000 -0.312101 92.995600 -1.796730 86.082200 -4.150110 -0.267073 15.735700 0.000005 -0.000001 83.772200 87.364700 -81.425000 8.984550 -0.406207 -0.000000 -2.506220 -0.781861 4.677290 16.377300 -0.000001 -0.000001 3.175850 3.656600 0.449998 6.456720 -0.000001 -0.000000 2.892390 5.686590 -3.919370 12.994200 -0.242716 4.980390 -92.739500 8.259980 -71.578700 5.348090 -0.000007 -0.000001 -72.875700 7.097140 4.590340 24.328600 0.000019 0.000005 14.667200 20.936700 -36.221000 22.291600 -0.000001 0.000005 -2.595390 4.930700 8.759720 12.994500 -0.242716 -4.980390 88.723100 3.973710 -72.169500 -5.348130 -0.000001 -0.000004 -69.605500 11.994400 0.014299 -24.328900 0.000322 -0.000009 5.041770 7.288170 -34.820100 -22.291500 -0.000108 -0.000004 2.482250 5.201980 2.670110 -2.192480 -6.469440 -0.000000 -176.104000 -1.061900 -4.962810 39.081100 -0.000007 -0.000012 0.222809 -0.586201 20.811700 40.985400 -0.000006 -0.000013 2.269280 6.041040 -71.353200 11.754300 -0.000000 0.000003 -0.000292 0.172408 -9.583780 -2.192510 6.469440 -0.000001 -174.646000 5.798710 179.898000 -39.081100 -0.002282 -0.040193 0.029713 -0.121735 12.226000 -40.985400 0.000008 0.000006 -0.619067 3.345750 -67.660700 -11.754300 -0.000006 -0.000006 -0.009638 0.268581 -5.662370
0.000000 0.000000 0.000000 0.000000 0.000000 -0.000000 -0.319217 93.004000 -1.809470 86.113600 -4.102670 -0.327866 15.735700 0.000005 -0.000001 83.653300 87.326600 -81.294000 8.984550 -0.406207 -0.000000 -2.431160 -0.800699 4.701490 16.377300 -0.000001 -0.000001 3.083200 3.505900 0.710986 6.456720 -0.000001 -0.000000 2.125920 5.612890 -3.545760 12.994200 -0.242716 4.980390 -92.765400 8.292900 -71.484700 5.348090 -0.000007 -0.000001 -72.203900 4.457300 5.115030 24.328600 0.000019 0.000005 16.007700 20.099500 -39.856100 22.291600 -0.000001 0.000005 -2.345510 4.923190 8.911940 12.994500 -0.242716 -4.980390 88.726900 3.911720 -71.956300 -5.348130 -0.000001 -0.000004 -69.175300 8.930380 0.510059 -24.328900 0.000322 -0.000009 6.309340 7.766850 -39.289900 -22.291500 -0.000108 -0.000004 2.316660 5.169560 3.471280 -2.192480 -6.469440 -0.000000 -176.118000 -1.147540 -5.008840 39.081100 -0.000007 -0.000012 0.219543 -0.580222 20.726000 40.985400 -0.000006 -0.000013 2.278740 6.149810 -71.242100 11.754300 -0.000000 0.000003 -0.000102 0.169318 -9.709280 -2.192510 6.469440 -0.000001 -174.645000 5.660000 179.840000 -39.081100 -0.002282 -0.040193 0.029831 -0.122756 12.180000 -40.985400 0.000008 0.000006 -0.609958 3.178810 -67.643400 -11.754300 -0.000006 -0.000006 -0.009663 0.268773 -5.654530
